<svg xmlns="http://www.w3.org/2000/svg" xmlns:xlink="http://www.w3.org/1999/xlink" version="1.1" width="256" height="256" viewBox="0 0 256 256" xml:space="preserve">

<defs>
</defs>
<g style="stroke: none; stroke-width: 0; stroke-dasharray: none; stroke-linecap: butt; stroke-linejoin: miter; stroke-miterlimit: 10; fill: none; fill-rule: nonzero; opacity: 1;" transform="translate(1.4065934065934016 1.4065934065934016) scale(2.81 2.81)" >
	<path d="M 43.591 0.002 c 0.036 0 0.072 0.001 0.107 0.002 c 1.161 0.037 2.106 0.689 2.529 1.741 l 11.935 29.669 c 0.08 0.197 0.225 0.344 0.422 0.423 l 0 0 l 29.67 11.935 c 1.053 0.423 1.704 1.369 1.741 2.53 c 0.044 1.359 -0.755 2.635 -2.036 3.249 L 4.289 89.665 c -1.227 0.587 -2.588 0.396 -3.468 -0.485 c -0.882 -0.882 -1.072 -2.243 -0.485 -3.467 L 40.449 2.039 C 41.047 0.792 42.273 0.002 43.591 0.002 z M 57.839 33.693 c -0.705 -0.283 -1.249 -0.828 -1.532 -1.533 L 44.372 2.491 c -0.156 -0.389 -0.488 -0.48 -0.738 -0.488 c -0.48 -0.036 -1.072 0.257 -1.382 0.901 L 2.138 86.577 c -0.221 0.462 -0.186 0.907 0.097 1.189 c 0.281 0.282 0.727 0.318 1.189 0.096 l 83.673 -40.114 c 0.644 -0.308 0.916 -0.916 0.901 -1.38 c -0.008 -0.251 -0.1 -0.583 -0.489 -0.739 L 57.839 33.693 z" style="stroke: none; stroke-width: 1; stroke-dasharray: none; stroke-linecap: butt; stroke-linejoin: miter; stroke-miterlimit: 10; fill: rgb(0,0,0); fill-rule: nonzero; opacity: 1;" transform=" matrix(1 0 0 1 0 0) " stroke-linecap="round" />
</g>
</svg>